<svg id="Componente_7_1" data-name="Componente 7 – 1" xmlns="http://www.w3.org/2000/svg" width="159" height="156" viewBox="0 0 159 156">
  <rect id="Rectángulo_18" data-name="Rectángulo 18" width="159" height="156" fill="#f5f5f5"/>
  <g id="image" transform="translate(44.719 46.373)">
    <path id="Trazado_3" data-name="Trazado 3" d="M50.732,210.354a6.5,6.5,0,0,1-1.642-.212L4.773,198.274a6.507,6.507,0,0,1-4.562-7.9L5.082,171.7a2.149,2.149,0,0,1,4.159,1.086L4.369,191.469A2.188,2.188,0,0,0,5.9,194.125L50.19,205.987a2.136,2.136,0,0,0,2.611-1.508l1.513-6.1a2.149,2.149,0,0,1,4.173,1.032l-1.519,6.133a6.456,6.456,0,0,1-6.236,4.814Zm0,0" transform="translate(0 -147.306)" fill="#b6b6b6"/>
    <path id="Trazado_4" data-name="Trazado 4" d="M136.188,46.345H91.768A6.454,6.454,0,0,1,85.32,39.9V6.94A6.454,6.454,0,0,1,91.768.492h44.42a6.454,6.454,0,0,1,6.448,6.448V39.9A6.454,6.454,0,0,1,136.188,46.345ZM91.768,4.791A2.15,2.15,0,0,0,89.619,6.94V39.9a2.15,2.15,0,0,0,2.149,2.149h44.42a2.15,2.15,0,0,0,2.149-2.149V6.94a2.15,2.15,0,0,0-2.149-2.149Zm0,0" transform="translate(-73.859 -0.492)" fill="#b6b6b6"/>
    <path id="Trazado_5" data-name="Trazado 5" d="M155.052,75.955a5.732,5.732,0,1,1,5.731-5.732A5.738,5.738,0,0,1,155.052,75.955Zm0-7.165a1.433,1.433,0,1,0,1.433,1.433A1.434,1.434,0,0,0,155.052,68.791Zm0,0" transform="translate(-129.261 -55.895)" fill="#b6b6b6"/>
    <path id="Trazado_6" data-name="Trazado 6" d="M87.9,141.235a2.151,2.151,0,0,1-1.519-3.671l12.953-12.953a5.029,5.029,0,0,1,7.107,0l3.465,3.465L120.552,115.3a5.014,5.014,0,0,1,3.829-1.808,4.609,4.609,0,0,1,3.843,1.763L142.49,131.9a2.15,2.15,0,0,1-3.264,2.8l-14.271-16.65a.86.86,0,0,0-.55-.256.72.72,0,0,0-.55.261L111.7,132.641a2.146,2.146,0,0,1-1.553.771,2.107,2.107,0,0,1-1.617-.628l-5.129-5.13a.621.621,0,0,0-1.029,0L89.421,140.6a2.135,2.135,0,0,1-1.519.63Zm0,0" transform="translate(-74.234 -98.306)" fill="#b6b6b6"/>
  </g>
</svg>
